{
  "accessors": [
    {
      "bufferView": 2,
      "componentType": 5126,
      "count": 65532,
      "max": [
        51.928810119628906,
        -7.3958902359008789,
        -72.902519226074219
      ],
      "min": [
        -52.376270294189453,
        -53.086841583251953,
        -74.122688293457031
      ],
      "type": "VEC3"
    },
    {
      "bufferView": 2,
      "byteOffset": 786384,
      "componentType": 5126,
      "count": 65532,
      "max": [
        0.87049281597137451,
        0.00070067885098978877,
        -0.36428540945053101
      ],
      "min": [
        -0.84076148271560669,
        -0.85889828205108643,
        -1
      ],
      "type": "VEC3"
    },
    {
      "bufferView": 1,
      "componentType": 5126,
      "count": 65532,
      "max": [
        0.99927002191543579,
        0.67163002490997314
      ],
      "min": [
        0.10474000126123428,
        0.00073000002885237336
      ],
      "type": "VEC2"
    },
    {
      "bufferView": 0,
      "componentType": 5125,
      "count": 65532,
      "max": [
        65531
      ],
      "min": [
        0
      ],
      "type": "SCALAR"
    },
    {
      "bufferView": 2,
      "byteOffset": 1572768,
      "componentType": 5126,
      "count": 65532,
      "max": [
        52.552791595458984,
        28.243520736694336,
        -72.9520263671875
      ],
      "min": [
        -52.87628173828125,
        -8.8313999176025391,
        -74.122520446777344
      ],
      "type": "VEC3"
    },
    {
      "bufferView": 2,
      "byteOffset": 2359152,
      "componentType": 5126,
      "count": 65532,
      "max": [
        0.83808290958404541,
        0.4489387571811676,
        -0.43158668279647827
      ],
      "min": [
        -0.87239521741867065,
        -0.15984570980072021,
        -1
      ],
      "type": "VEC3"
    },
    {
      "bufferView": 1,
      "byteOffset": 524256,
      "componentType": 5126,
      "count": 65532,
      "max": [
        0.99927002191543579,
        0.68480998277664185
      ],
      "min": [
        0.1037599965929985,
        0.0012199999764561653
      ],
      "type": "VEC2"
    },
    {
      "bufferView": 0,
      "byteOffset": 262128,
      "componentType": 5125,
      "count": 65532,
      "max": [
        65531
      ],
      "min": [
        0
      ],
      "type": "SCALAR"
    },
    {
      "bufferView": 2,
      "byteOffset": 3145536,
      "componentType": 5126,
      "count": 65532,
      "max": [
        53.099128723144531,
        53.491439819335938,
        -47.967239379882812
      ],
      "min": [
        -53.349609375,
        -53.491439819335938,
        -74.12249755859375
      ],
      "type": "VEC3"
    },
    {
      "bufferView": 2,
      "byteOffset": 3931920,
      "componentType": 5126,
      "count": 65532,
      "max": [
        0.99997794628143311,
        0.99999392032623291,
        0.99956250190734863
      ],
      "min": [
        -0.99999725818634033,
        -0.99998795986175537,
        -1
      ],
      "type": "VEC3"
    },
    {
      "bufferView": 1,
      "byteOffset": 1048512,
      "componentType": 5126,
      "count": 65532,
      "max": [
        0.99927002191543579,
        0.96069002151489258
      ],
      "min": [
        0.013430000282824039,
        0.00073000002885237336
      ],
      "type": "VEC2"
    },
    {
      "bufferView": 0,
      "byteOffset": 524256,
      "componentType": 5125,
      "count": 158643,
      "max": [
        65531
      ],
      "min": [
        0
      ],
      "type": "SCALAR"
    },
    {
      "bufferView": 2,
      "byteOffset": 4718304,
      "componentType": 5126,
      "count": 65532,
      "max": [
        53.349609375,
        52.93927001953125,
        -40.963489532470703
      ],
      "min": [
        -52.601898193359375,
        -52.913211822509766,
        -68.361671447753906
      ],
      "type": "VEC3"
    },
    {
      "bufferView": 2,
      "byteOffset": 5504688,
      "componentType": 5126,
      "count": 65532,
      "max": [
        0.99999743700027466,
        0.99999898672103882,
        0.99996781349182129
      ],
      "min": [
        -0.99999839067459106,
        -0.99986952543258667,
        -0.99882256984710693
      ],
      "type": "VEC3"
    },
    {
      "bufferView": 1,
      "byteOffset": 1572768,
      "componentType": 5126,
      "count": 65532,
      "max": [
        0.99927002191543579,
        0.99927002191543579
      ],
      "min": [
        0.0046399999409914017,
        0.00073000002885237336
      ],
      "type": "VEC2"
    },
    {
      "bufferView": 0,
      "byteOffset": 1158828,
      "componentType": 5125,
      "count": 266970,
      "max": [
        65531
      ],
      "min": [
        0
      ],
      "type": "SCALAR"
    },
    {
      "bufferView": 2,
      "byteOffset": 6291072,
      "componentType": 5126,
      "count": 65532,
      "max": [
        51.737499237060547,
        50.496479034423828,
        -41.183040618896484
      ],
      "min": [
        -50.313568115234375,
        -46.594409942626953,
        -55.087600708007812
      ],
      "type": "VEC3"
    },
    {
      "bufferView": 2,
      "byteOffset": 7077456,
      "componentType": 5126,
      "count": 65532,
      "max": [
        0.99997729063034058,
        0.99999898672103882,
        0.99997138977050781
      ],
      "min": [
        -0.99958348274230957,
        -0.99996441602706909,
        -0.99914336204528809
      ],
      "type": "VEC3"
    },
    {
      "bufferView": 1,
      "byteOffset": 2097024,
      "componentType": 5126,
      "count": 65532,
      "max": [
        0.99927002191543579,
        0.99414998292922974
      ],
      "min": [
        0.0047100000083446503,
        0.00073000002885237336
      ],
      "type": "VEC2"
    },
    {
      "bufferView": 0,
      "byteOffset": 2226708,
      "componentType": 5125,
      "count": 263778,
      "max": [
        65531
      ],
      "min": [
        0
      ],
      "type": "SCALAR"
    },
    {
      "bufferView": 2,
      "byteOffset": 7863840,
      "componentType": 5126,
      "count": 14859,
      "max": [
        44.450119018554688,
        49.566619873046875,
        -40.727970123291016
      ],
      "min": [
        -45.526939392089844,
        -43.263168334960938,
        -49.152801513671875
      ],
      "type": "VEC3"
    },
    {
      "bufferView": 2,
      "byteOffset": 8042148,
      "componentType": 5126,
      "count": 14859,
      "max": [
        0.99981802701950073,
        0.99944263696670532,
        0.99997937679290771
      ],
      "min": [
        -0.99965548515319824,
        -0.99984937906265259,
        -0.99909371137619019
      ],
      "type": "VEC3"
    },
    {
      "bufferView": 1,
      "byteOffset": 2621280,
      "componentType": 5126,
      "count": 14859,
      "max": [
        0.99412000179290771,
        0.99518001079559326
      ],
      "min": [
        0.0046899998560547829,
        0.00073000002885237336
      ],
      "type": "VEC2"
    },
    {
      "bufferView": 0,
      "byteOffset": 3281820,
      "componentType": 5125,
      "count": 44145,
      "max": [
        14858
      ],
      "min": [
        0
      ],
      "type": "SCALAR"
    }
  ],
  "asset": {
    "extras": {
      "author": "ronenh (https://sketchfab.com/ronenh)",
      "license": "CC-BY-ND-4.0 (http://creativecommons.org/licenses/by-nd/4.0/)",
      "source": "https://sketchfab.com/3d-models/fruit-cake-scan-with-qlone-86bd3bdbb1444b378e806da583d6d48a",
      "title": "Fruit Cake scan with Qlone"
    },
    "generator": "Sketchfab-8.47.0",
    "version": "2.0"
  },
  "bufferViews": [
    {
      "buffer": 0,
      "byteLength": 3458400,
      "byteOffset": 0,
      "name": "floatBufferViews",
      "target": 34963
    },
    {
      "buffer": 0,
      "byteLength": 2740152,
      "byteOffset": 3458400,
      "byteStride": 8,
      "name": "floatBufferViews",
      "target": 34962
    },
    {
      "buffer": 0,
      "byteLength": 8220456,
      "byteOffset": 6198552,
      "byteStride": 12,
      "name": "floatBufferViews",
      "target": 34962
    }
  ],
  "buffers": [
    {
      "byteLength": 14419008,
      "uri": "scene.bin"
    }
  ],
  "extensionsUsed": [
    "KHR_materials_unlit"
  ],
  "images": [
    {
      "uri": "textures/material0_baseColor.jpeg"
    }
  ],
  "materials": [
    {
      "doubleSided": true,
      "emissiveFactor": [
        0,
        0,
        0
      ],
      "emissiveTexture": {
        "index": 0,
        "texCoord": 0
      },
      "extensions": {
        "KHR_materials_unlit": {}
      },
      "name": "material0",
      "pbrMetallicRoughness": {
        "baseColorFactor": [
          1,
          1,
          1,
          1
        ],
        "baseColorTexture": {
          "index": 0,
          "texCoord": 0
        },
        "metallicFactor": 0,
        "roughnessFactor": 1
      }
    }
  ],
  "meshes": [
    {
      "primitives": [
        {
          "attributes": {
            "NORMAL": 1,
            "POSITION": 0,
            "TEXCOORD_0": 2
          },
          "indices": 3,
          "material": 0,
          "mode": 4
        }
      ]
    },
    {
      "primitives": [
        {
          "attributes": {
            "NORMAL": 5,
            "POSITION": 4,
            "TEXCOORD_0": 6
          },
          "indices": 7,
          "material": 0,
          "mode": 4
        }
      ]
    },
    {
      "primitives": [
        {
          "attributes": {
            "NORMAL": 9,
            "POSITION": 8,
            "TEXCOORD_0": 10
          },
          "indices": 11,
          "material": 0,
          "mode": 4
        }
      ]
    },
    {
      "primitives": [
        {
          "attributes": {
            "NORMAL": 13,
            "POSITION": 12,
            "TEXCOORD_0": 14
          },
          "indices": 15,
          "material": 0,
          "mode": 4
        }
      ]
    },
    {
      "primitives": [
        {
          "attributes": {
            "NORMAL": 17,
            "POSITION": 16,
            "TEXCOORD_0": 18
          },
          "indices": 19,
          "material": 0,
          "mode": 4
        }
      ]
    },
    {
      "primitives": [
        {
          "attributes": {
            "NORMAL": 21,
            "POSITION": 20,
            "TEXCOORD_0": 22
          },
          "indices": 23,
          "material": 0,
          "mode": 4
        }
      ]
    }
  ],
  "nodes": [
    {
      "children": [
        1
      ],
      "name": "RootNode (gltf orientation matrix)",
      "rotation": [
        -0.70710678118654746,
        -0,
        -0,
        0.70710678118654757
      ]
    },
    {
      "children": [
        2
      ],
      "name": "RootNode (model correction matrix)"
    },
    {
      "children": [
        3,
        4,
        5,
        6,
        7,
        8
      ],
      "name": "model_Fruit Cake scan with Qlone_20200507_164524457.obj.cleaner.materialmerger.gles"
    },
    {
      "mesh": 0,
      "name": ""
    },
    {
      "mesh": 1,
      "name": ""
    },
    {
      "mesh": 2,
      "name": ""
    },
    {
      "mesh": 3,
      "name": ""
    },
    {
      "mesh": 4,
      "name": ""
    },
    {
      "mesh": 5,
      "name": ""
    }
  ],
  "samplers": [
    {
      "magFilter": 9729,
      "minFilter": 9987,
      "wrapS": 10497,
      "wrapT": 10497
    }
  ],
  "scene": 0,
  "scenes": [
    {
      "name": "OSG_Scene",
      "nodes": [
        0
      ]
    }
  ],
  "textures": [
    {
      "sampler": 0,
      "source": 0
    }
  ]
}

