{
  "accessors": [
    {
      "bufferView": 2,
      "componentType": 5126,
      "count": 39464,
      "max": [
        0.093243002891540527,
        0.087866999208927155,
        0.032212000340223312
      ],
      "min": [
        -0.082858003675937653,
        -0.088916003704071045,
        -0.024446999654173851
      ],
      "type": "VEC3"
    },
    {
      "bufferView": 2,
      "byteOffset": 473568,
      "componentType": 5126,
      "count": 39464,
      "max": [
        0.9999842643737793,
        0.99983364343643188,
        0.93517237901687622
      ],
      "min": [
        -0.99999964237213135,
        -0.99954944849014282,
        -0.99999773502349854
      ],
      "type": "VEC3"
    },
    {
      "bufferView": 1,
      "componentType": 5126,
      "count": 39464,
      "max": [
        1,
        1
      ],
      "min": [
        0,
        0
      ],
      "type": "VEC2"
    },
    {
      "bufferView": 0,
      "componentType": 5125,
      "count": 215106,
      "max": [
        39463
      ],
      "min": [
        0
      ],
      "type": "SCALAR"
    }
  ],
  "asset": {
    "extras": {
      "author": "vorobevdesign (https://sketchfab.com/vorobevdesign)",
      "license": "CC-BY-4.0 (http://creativecommons.org/licenses/by/4.0/)",
      "source": "https://sketchfab.com/3d-models/sliced-cake-02b83b475efa4d67986bc9a8c16356d6",
      "title": "Sliced cake"
    },
    "generator": "Sketchfab-9.69.0",
    "version": "2.0"
  },
  "bufferViews": [
    {
      "buffer": 0,
      "byteLength": 860424,
      "byteOffset": 0,
      "name": "floatBufferViews",
      "target": 34963
    },
    {
      "buffer": 0,
      "byteLength": 315712,
      "byteOffset": 860424,
      "byteStride": 8,
      "name": "floatBufferViews",
      "target": 34962
    },
    {
      "buffer": 0,
      "byteLength": 947136,
      "byteOffset": 1176136,
      "byteStride": 12,
      "name": "floatBufferViews",
      "target": 34962
    }
  ],
  "buffers": [
    {
      "byteLength": 2123272,
      "uri": "scene.bin"
    }
  ],
  "extensionsUsed": [
    "KHR_materials_unlit"
  ],
  "images": [
    {
      "uri": "textures/mesh_baseColor.jpeg"
    }
  ],
  "materials": [
    {
      "doubleSided": true,
      "emissiveFactor": [
        0,
        0,
        0
      ],
      "extensions": {
        "KHR_materials_unlit": {}
      },
      "name": "mesh",
      "pbrMetallicRoughness": {
        "baseColorFactor": [
          1,
          1,
          1,
          1
        ],
        "baseColorTexture": {
          "index": 0,
          "texCoord": 0
        },
        "metallicFactor": 0,
        "roughnessFactor": 1
      }
    }
  ],
  "meshes": [
    {
      "primitives": [
        {
          "attributes": {
            "NORMAL": 1,
            "POSITION": 0,
            "TEXCOORD_0": 2
          },
          "indices": 3,
          "material": 0,
          "mode": 4
        }
      ]
    }
  ],
  "nodes": [
    {
      "children": [
        1
      ],
      "name": "RootNode (gltf orientation matrix)",
      "rotation": [
        -0.70710678118654746,
        -0,
        -0,
        0.70710678118654757
      ]
    },
    {
      "children": [
        2
      ],
      "matrix": [
        0.99828869104385376,
        -0.001947812270373106,
        -0.058446157723665237,
        0,
        -1.6805133673525319e-17,
        -0.99944514036178589,
        0.033308118581771851,
        0,
        -0.058478605002164841,
        -0.033251117914915085,
        -0.99773472547531128,
        0,
        0.00023593094374518842,
        -0.00090962025569751859,
        0.0080772154033184052,
        1
      ],
      "name": "RootNode (model correction matrix)"
    },
    {
      "children": [
        3
      ],
      "name": "mesh.obj.cleaner.materialmerger.gles"
    },
    {
      "mesh": 0,
      "name": ""
    }
  ],
  "samplers": [
    {
      "magFilter": 9729,
      "minFilter": 9987,
      "wrapS": 10497,
      "wrapT": 10497
    }
  ],
  "scene": 0,
  "scenes": [
    {
      "name": "OSG_Scene",
      "nodes": [
        0
      ]
    }
  ],
  "textures": [
    {
      "sampler": 0,
      "source": 0
    }
  ]
}

